HIERARCHY
ROOT mixamorig:Hips
{
	OFFSET 0.000000 102.625267 -0.521241
	CHANNELS 6 Xposition Yposition Zposition Xrotation Yrotation Zrotation
	JOINT mixamorig:Spine
	{
		OFFSET 0.000000 5.645721 -0.031929
		CHANNELS 3 Xrotation Yrotation Zrotation
		JOINT mixamorig:Spine1
		{
			OFFSET 0.000000 6.586685 -0.037251
			CHANNELS 3 Xrotation Yrotation Zrotation
			JOINT mixamorig:Spine2
			{
				OFFSET 0.000000 7.527618 -0.042572
				CHANNELS 3 Xrotation Yrotation Zrotation
				JOINT mixamorig:Neck
				{
					OFFSET 0.000000 8.468590 -0.047894
					CHANNELS 3 Xrotation Yrotation Zrotation
					JOINT mixamorig:Head
					{
						OFFSET 0.000000 5.998901 -1.158958
						CHANNELS 3 Xrotation Yrotation Zrotation
						JOINT mixamorig:HeadTop_End
						{
							OFFSET 0.000000 21.748810 -4.201760
							CHANNELS 3 Xrotation Yrotation Zrotation
							End Site
							{
								OFFSET 0.000000 22.150970 0.000000
							}
						}
					}
				}
				JOINT mixamorig:LeftShoulder
				{
					OFFSET 3.414614 7.343132 -0.058928
					CHANNELS 3 Xrotation Yrotation Zrotation
					JOINT mixamorig:LeftArm
					{
						OFFSET 6.829548 -2.246910 -0.022071
						CHANNELS 3 Xrotation Yrotation Zrotation
						JOINT mixamorig:LeftForeArm
						{
							OFFSET 24.198503 -0.424179 0.257802
							CHANNELS 3 Xrotation Yrotation Zrotation
							JOINT mixamorig:LeftHand
							{
								OFFSET 21.584717 -0.002335 0.669575
								CHANNELS 3 Xrotation Yrotation Zrotation
								JOINT mixamorig:LeftHandThumb1
								{
									OFFSET 2.193897 -1.259628 1.956942
									CHANNELS 3 Xrotation Yrotation Zrotation
									JOINT mixamorig:LeftHandThumb2
									{
										OFFSET 1.755203 -1.007660 1.565605
										CHANNELS 3 Xrotation Yrotation Zrotation
										JOINT mixamorig:LeftHandThumb3
										{
											OFFSET 2.535126 -0.998764 1.490660
											CHANNELS 3 Xrotation Yrotation Zrotation
											JOINT mixamorig:LeftHandThumb4
											{
												OFFSET 2.398251 -0.721657 1.023775
												CHANNELS 3 Xrotation Yrotation Zrotation
												End Site
												{
													OFFSET 2.205696 -0.773872 1.362551
												}
											}
										}
									}
								}
								JOINT mixamorig:LeftHandIndex1
								{
									OFFSET 7.166248 -0.069405 2.369028
									CHANNELS 3 Xrotation Yrotation Zrotation
									JOINT mixamorig:LeftHandIndex2
									{
										OFFSET 2.989986 -0.015724 0.245918
										CHANNELS 3 Xrotation Yrotation Zrotation
										JOINT mixamorig:LeftHandIndex3
										{
											OFFSET 2.739197 -0.058952 0.219132
											CHANNELS 3 Xrotation Yrotation Zrotation
											JOINT mixamorig:LeftHandIndex4
											{
												OFFSET 2.326500 -0.032570 0.188458
												CHANNELS 3 Xrotation Yrotation Zrotation
												End Site
												{
													OFFSET 2.326485 -0.032578 0.188548
												}
											}
										}
									}
								}
								JOINT mixamorig:LeftHandMiddle1
								{
									OFFSET 7.394897 0.286369 0.654762
									CHANNELS 3 Xrotation Yrotation Zrotation
									JOINT mixamorig:LeftHandMiddle2
									{
										OFFSET 3.376106 0.152466 -0.003692
										CHANNELS 3 Xrotation Yrotation Zrotation
										JOINT mixamorig:LeftHandMiddle3
										{
											OFFSET 3.185104 -0.185410 -0.047914
											CHANNELS 3 Xrotation Yrotation Zrotation
											JOINT mixamorig:LeftHandMiddle4
											{
												OFFSET 2.742905 0.223846 0.010354
												CHANNELS 3 Xrotation Yrotation Zrotation
												End Site
												{
													OFFSET 2.742889 0.224251 0.006757
												}
											}
										}
									}
								}
								JOINT mixamorig:LeftHandRing1
								{
									OFFSET 7.508747 0.282753 -1.072900
									CHANNELS 3 Xrotation Yrotation Zrotation
									JOINT mixamorig:LeftHandRing2
									{
										OFFSET 2.821857 0.317802 -0.177266
										CHANNELS 3 Xrotation Yrotation Zrotation
										JOINT mixamorig:LeftHandRing3
										{
											OFFSET 2.672325 0.088310 -0.196165
											CHANNELS 3 Xrotation Yrotation Zrotation
											JOINT mixamorig:LeftHandRing4
											{
												OFFSET 2.272652 -0.053627 -0.183955
												CHANNELS 3 Xrotation Yrotation Zrotation
												End Site
												{
													OFFSET 2.272919 -0.054016 -0.180438
												}
											}
										}
									}
								}
								JOINT mixamorig:LeftHandPinky1
								{
									OFFSET 7.285820 0.522377 -2.660948
									CHANNELS 3 Xrotation Yrotation Zrotation
									JOINT mixamorig:LeftHandPinky2
									{
										OFFSET 2.466278 0.082008 -0.249570
										CHANNELS 3 Xrotation Yrotation Zrotation
										JOINT mixamorig:LeftHandPinky3
										{
											OFFSET 1.940475 0.021858 -0.202004
											CHANNELS 3 Xrotation Yrotation Zrotation
											JOINT mixamorig:LeftHandPinky4
											{
												OFFSET 1.645287 0.153595 -0.153405
												CHANNELS 3 Xrotation Yrotation Zrotation
												End Site
												{
													OFFSET 1.645088 0.153801 -0.155289
												}
											}
										}
									}
								}
							}
						}
					}
				}
				JOINT mixamorig:RightShoulder
				{
					OFFSET -3.414604 7.343132 -0.036860
					CHANNELS 3 Xrotation Yrotation Zrotation
					JOINT mixamorig:RightArm
					{
						OFFSET -6.829551 -2.246986 0.022068
						CHANNELS 3 Xrotation Yrotation Zrotation
						JOINT mixamorig:RightForeArm
						{
							OFFSET -24.198494 -0.424141 0.158696
							CHANNELS 3 Xrotation Yrotation Zrotation
							JOINT mixamorig:RightHand
							{
								OFFSET -21.584698 -0.002243 0.686977
								CHANNELS 3 Xrotation Yrotation Zrotation
								JOINT mixamorig:RightHandThumb1
								{
									OFFSET -2.242882 -1.296806 1.978855
									CHANNELS 3 Xrotation Yrotation Zrotation
									JOINT mixamorig:RightHandThumb2
									{
										OFFSET -1.794239 -1.037361 1.583064
										CHANNELS 3 Xrotation Yrotation Zrotation
										JOINT mixamorig:RightHandThumb3
										{
											OFFSET -2.504150 -0.962166 1.471556
											CHANNELS 3 Xrotation Yrotation Zrotation
											JOINT mixamorig:RightHandThumb4
											{
												OFFSET -2.346046 -0.743172 0.992235
												CHANNELS 3 Xrotation Yrotation Zrotation
												End Site
												{
													OFFSET -2.157112 -0.792709 1.326359
												}
											}
										}
									}
								}
								JOINT mixamorig:RightHandIndex1
								{
									OFFSET -7.174488 -0.001839 2.366265
									CHANNELS 3 Xrotation Yrotation Zrotation
									JOINT mixamorig:RightHandIndex2
									{
										OFFSET -2.935219 -0.016853 0.287245
										CHANNELS 3 Xrotation Yrotation Zrotation
										JOINT mixamorig:RightHandIndex3
										{
											OFFSET -2.786827 -0.129890 0.255971
											CHANNELS 3 Xrotation Yrotation Zrotation
											JOINT mixamorig:RightHandIndex4
											{
												OFFSET -2.343559 0.168816 0.256164
												CHANNELS 3 Xrotation Yrotation Zrotation
												End Site
												{
													OFFSET -2.344208 0.169510 0.249690
												}
											}
										}
									}
								}
								JOINT mixamorig:RightHandMiddle1
								{
									OFFSET -7.274693 0.327965 0.656181
									CHANNELS 3 Xrotation Yrotation Zrotation
									JOINT mixamorig:RightHandMiddle2
									{
										OFFSET -3.309677 0.091591 0.032863
										CHANNELS 3 Xrotation Yrotation Zrotation
										JOINT mixamorig:RightHandMiddle3
										{
											OFFSET -3.186844 -0.122513 0.000971
											CHANNELS 3 Xrotation Yrotation Zrotation
											JOINT mixamorig:RightHandMiddle4
											{
												OFFSET -2.671951 -0.322540 -0.031001
												CHANNELS 3 Xrotation Yrotation Zrotation
												End Site
												{
													OFFSET -2.671928 -0.323486 -0.021820
												}
											}
										}
									}
								}
								JOINT mixamorig:RightHandRing1
								{
									OFFSET -7.453640 0.430428 -1.170334
									CHANNELS 3 Xrotation Yrotation Zrotation
									JOINT mixamorig:RightHandRing2
									{
										OFFSET -2.808174 0.165817 -0.117934
										CHANNELS 3 Xrotation Yrotation Zrotation
										JOINT mixamorig:RightHandRing3
										{
											OFFSET -2.730080 0.127754 -0.119542
											CHANNELS 3 Xrotation Yrotation Zrotation
											JOINT mixamorig:RightHandRing4
											{
												OFFSET -2.349426 0.078133 -0.107466
												CHANNELS 3 Xrotation Yrotation Zrotation
												End Site
												{
													OFFSET -2.349503 0.077988 -0.106043
												}
											}
										}
									}
								}
								JOINT mixamorig:RightHandPinky1
								{
									OFFSET -7.364456 0.463486 -2.604800
									CHANNELS 3 Xrotation Yrotation Zrotation
									JOINT mixamorig:RightHandPinky2
									{
										OFFSET -2.430134 0.174614 -0.251330
										CHANNELS 3 Xrotation Yrotation Zrotation
										JOINT mixamorig:RightHandPinky3
										{
											OFFSET -1.953583 0.007492 -0.220999
											CHANNELS 3 Xrotation Yrotation Zrotation
											JOINT mixamorig:RightHandPinky4
											{
												OFFSET -1.582039 0.276558 -0.139972
												CHANNELS 3 Xrotation Yrotation Zrotation
												End Site
												{
													OFFSET -1.581284 0.277252 -0.147002
												}
											}
										}
									}
								}
							}
						}
					}
				}
			}
		}
	}
	JOINT mixamorig:LeftUpLeg
	{
		OFFSET 6.620181 -8.816864 -0.447179
		CHANNELS 3 Xrotation Yrotation Zrotation
		JOINT mixamorig:LeftLeg
		{
			OFFSET 2.748989 -36.076775 0.650871
			CHANNELS 3 Xrotation Yrotation Zrotation
			JOINT mixamorig:LeftFoot
			{
				OFFSET 1.089303 -46.239017 1.019056
				CHANNELS 3 Xrotation Yrotation Zrotation
				JOINT mixamorig:LeftToeBase
				{
					OFFSET -0.371088 -10.380511 12.650617
					CHANNELS 3 Xrotation Yrotation Zrotation
					JOINT mixamorig:LeftToe_End
					{
						OFFSET -0.094684 -0.116785 6.663326
						CHANNELS 3 Xrotation Yrotation Zrotation
						End Site
						{
							OFFSET -0.094684 -0.116785 6.663326
						}
					}
				}
			}
		}
	}
	JOINT mixamorig:RightUpLeg
	{
		OFFSET -6.620174 -8.816818 -0.447182
		CHANNELS 3 Xrotation Yrotation Zrotation
		JOINT mixamorig:RightLeg
		{
			OFFSET -2.748991 -36.076790 0.753614
			CHANNELS 3 Xrotation Yrotation Zrotation
			JOINT mixamorig:RightFoot
			{
				OFFSET -1.089311 -46.239029 0.372114
				CHANNELS 3 Xrotation Yrotation Zrotation
				JOINT mixamorig:RightToeBase
				{
					OFFSET 0.371103 -10.380659 13.284531
					CHANNELS 3 Xrotation Yrotation Zrotation
					JOINT mixamorig:RightToe_End
					{
						OFFSET 0.094689 -0.116865 6.675873
						CHANNELS 3 Xrotation Yrotation Zrotation
						End Site
						{
							OFFSET 0.094687 -0.116865 6.675871
						}
					}
				}
			}
		}
	}
}
MOTION
Frames: 4
Frame Time: 0.016667
3.916703 81.324890 -1.715219 -29.575631 -22.066458 -25.896213 14.044514 10.054503 -2.842867 1.361566 2.848199 0.144731 1.380794 2.822174 0.114122 3.479111 -1.932760 0.218967 8.764237 -20.296757 11.241919 0.000000 0.000001 -0.000000 -1.714894 9.899178 0.845906 26.083953 24.871924 -18.933880 -0.830715 -40.488088 -1.297937 8.419048 -11.143758 -15.026688 9.789247 7.412606 3.325707 4.939171 4.218598 -0.215165 -8.619323 -16.771178 8.243625 0.000001 0.000003 0.000000 0.379965 -3.141526 0.779928 3.942226 5.405586 -29.506199 4.167489 5.500686 -30.873818 0.000000 -0.000000 -0.000001 -0.363461 -3.440669 -14.969862 0.644505 4.456569 -19.724837 0.313390 2.955598 -17.153808 -0.000004 -0.000002 0.000001 0.121903 -0.653316 -23.832280 -0.887735 4.211853 -18.644835 -0.757955 3.501949 -15.787595 -0.000004 -0.000000 -0.000001 -0.020418 7.954710 -20.011486 -1.463205 5.392694 -23.826367 -1.628838 6.360927 -29.696416 -0.000002 -0.000001 -0.000001 0.821059 3.691079 -4.682204 29.891401 -12.328924 11.933989 -0.917637 43.207288 1.354494 24.957977 -0.413738 34.687488 8.235816 -4.949050 -3.294920 5.642750 -6.322889 -0.001879 -8.022596 10.835594 -11.409445 -0.000003 -0.000003 -0.000001 0.316190 2.607292 -2.000704 3.891777 -4.134681 28.222796 5.397099 -4.756224 37.371271 -0.000000 0.000003 -0.000001 -0.311105 3.638263 12.923804 0.867663 -3.761551 22.025275 0.081643 -0.898353 4.503548 0.000001 0.000001 0.000001 0.317567 0.522856 19.961231 -0.398615 -3.949778 22.652358 -0.437125 -3.209294 18.401126 -0.000001 -0.000002 -0.000000 -0.307655 -6.814588 21.765538 -1.737132 -3.972477 21.391770 -2.139674 -6.384317 34.803564 -0.000001 0.000001 -0.000001 -25.847234 4.337308 -10.736722 35.675707 -0.625974 -1.816903 27.559533 5.984488 22.934942 -18.993040 0.000042 0.000022 -0.000000 -0.000001 0.000000 -13.717518 -15.229778 -15.143803 86.798720 1.931951 3.892252 14.497903 2.492827 15.507540 -64.985678 0.158532 -1.482006 -0.000001 -0.000001 0.000001 
4.170386 81.789612 -2.162700 -28.970920 -25.088414 -25.810184 12.648624 9.810398 -2.522346 1.136371 2.743891 0.185290 1.155196 2.719446 0.156602 3.692761 -1.649265 0.136888 8.684653 -17.263972 10.308966 0.000000 0.000001 -0.000000 -1.769809 8.869686 1.466404 29.626857 21.323352 -18.526154 -1.035023 -46.662046 -1.437022 7.618334 -10.670101 -13.206431 5.951548 11.435303 -0.182812 3.382452 4.957126 1.622279 -9.174717 -16.504568 8.691954 0.000002 -0.000000 -0.000001 0.985794 -3.000697 -1.149402 3.955513 5.416209 -29.581549 4.074454 5.428726 -30.352179 0.000003 0.000001 0.000000 -0.359659 -3.026954 -16.284704 0.765981 4.793233 -21.455055 0.416185 3.352281 -19.126971 0.000001 0.000000 0.000000 0.085259 -0.545423 -25.546765 -0.904378 4.661908 -20.734475 -0.784202 3.854274 -17.437097 -0.000002 -0.000002 0.000002 -0.250914 7.709806 -22.640448 -1.481157 5.778271 -25.488574 -1.605681 6.937147 -32.156998 0.000005 0.000000 -0.000003 0.891971 4.475615 -4.684447 31.215686 -11.581880 12.526610 -1.105256 48.454479 1.487600 27.457847 -2.632612 33.967388 3.975724 -9.014916 0.860647 5.744949 -4.811144 -2.318940 -8.765963 9.487577 -11.879115 -0.000000 0.000001 0.000000 0.912655 2.606617 -0.710389 3.889125 -4.133015 28.207238 5.438360 -4.774320 37.598405 -0.000001 0.000002 -0.000000 -0.301978 3.368742 13.727305 0.935305 -3.907631 22.964633 0.126265 -1.199144 6.271512 -0.000000 0.000001 -0.000000 0.347748 0.347952 21.292725 -0.377887 -4.142886 23.759018 -0.430054 -3.412265 19.558004 0.000000 0.000000 0.000001 -0.561841 -6.430624 23.423884 -1.735395 -3.965113 21.354014 -2.138881 -6.735780 36.547926 0.000000 -0.000002 0.000001 -26.523207 4.310717 -10.024535 32.968671 -0.505075 -1.843375 28.627222 5.978044 22.296531 -18.500139 0.000020 0.000017 -0.000000 0.000006 0.000001 -16.507058 -14.237440 -15.994102 86.634966 1.211849 3.889926 15.539606 2.537709 15.287828 -64.525521 0.137684 -1.284209 -0.000000 -0.000000 -0.000000 
4.716940 82.675476 -2.883680 -28.180768 -27.922083 -25.954758 11.882999 9.315248 -1.646762 0.987585 2.545638 0.310776 1.006066 2.520064 0.284054 3.756728 -1.374874 0.021088 8.272594 -14.472648 9.124153 -0.000000 0.000002 0.000000 -1.675732 7.905168 1.537178 33.602813 17.594473 -17.852890 -1.245143 -51.824771 -1.594675 9.240079 -12.953876 -8.777423 1.680468 15.716815 -3.574412 1.671010 5.744140 3.590163 -9.754529 -16.280729 9.166545 0.000004 0.000005 -0.000003 1.610093 -2.867157 -3.270121 3.971902 5.429274 -29.674450 3.972963 5.348658 -29.779054 -0.000003 0.000000 -0.000000 -0.340002 -2.570105 -17.724928 0.909138 5.153730 -23.331730 0.542888 3.777429 -21.264882 0.000000 0.000001 -0.000001 0.038630 -0.431432 -27.398788 -0.903816 5.149957 -23.000561 -0.801167 4.237088 -19.226665 0.000000 -0.000000 0.000000 -0.489594 7.425203 -25.482797 -1.487904 6.204844 -27.327052 -1.553124 7.553361 -34.799520 -0.000005 -0.000001 -0.000001 0.962702 5.264600 -4.700251 32.507589 -10.792223 13.046873 -1.338861 53.758585 1.667984 30.015843 -4.937205 33.356875 -0.629631 -13.369843 4.736704 5.873725 -3.271472 -4.701958 -9.528239 8.115609 -12.390092 -0.000001 -0.000001 -0.000001 1.525548 2.583142 0.748446 3.899222 -4.139315 28.266540 5.496555 -4.799538 37.918400 0.000001 -0.000001 -0.000000 -0.285388 3.063110 14.650846 1.012174 -4.066296 23.993589 0.185707 -1.526546 8.206932 0.000001 0.000000 -0.000003 0.384530 0.156140 22.745525 -0.351280 -4.351274 24.956550 -0.417520 -3.635595 20.832391 0.000000 0.000001 0.000000 -0.841462 -5.977063 25.195004 -1.735445 -3.965431 21.355671 -2.126439 -7.104516 38.380622 -0.000001 -0.000001 -0.000003 -25.425866 3.989659 -9.126584 26.998696 -1.300194 -1.574368 31.163121 6.318734 21.316151 -18.058896 -0.000001 0.000011 -0.000001 0.000000 0.000000 -19.137587 -13.884269 -16.315010 85.551507 0.189760 3.851280 17.233020 2.557346 14.926239 -63.953083 0.117897 -1.108349 -0.000001 0.000000 0.000000 
5.386941 83.741875 -3.697592 -27.337062 -30.705658 -26.268790 11.483435 8.785565 -0.583804 0.907522 2.332679 0.463282 0.925577 2.304372 0.438816 3.785127 -1.102593 -0.085313 7.820119 -11.689730 7.958725 -0.000000 0.000003 -0.000000 -1.567403 6.770847 1.608559 35.203051 16.023175 -18.311244 -1.597471 -58.440103 -1.882128 15.489868 -6.109769 -20.420150 -3.017297 20.164477 -6.749917 -0.151800 6.525569 5.676589 -10.351912 -16.093065 9.661289 -0.000000 0.000002 0.000004 2.236595 -2.753838 -5.537191 3.989117 5.442978 -29.771965 3.864066 5.260885 -29.159037 -0.000000 -0.000000 -0.000003 -0.300931 -2.080644 -19.255688 1.072874 5.528428 -25.311841 0.694037 4.221295 -23.526576 0.000002 -0.000001 0.000003 -0.018359 -0.312302 -29.349306 -0.882192 5.664475 -25.393499 -0.806048 4.641687 -21.117413 0.000000 0.000000 -0.000001 -0.731717 7.107286 -28.481071 -1.479917 6.660350 -29.291840 -1.467189 8.195919 -37.573960 0.000003 -0.000001 -0.000003 1.034898 6.044110 -4.693546 33.832833 -10.028412 13.626922 -1.631993 58.940380 1.910648 32.262033 -7.250704 32.678149 -5.583493 -17.895384 8.253928 6.013441 -1.739362 -7.128431 -10.302698 6.741255 -12.939394 0.000000 0.000002 0.000001 2.134941 2.559670 2.296390 3.910316 -4.146273 28.331831 5.557629 -4.825535 38.253253 -0.000000 0.000000 0.000000 -0.258726 2.736937 15.621186 1.093316 -4.226369 25.041531 0.259356 -1.865285 10.223722 0.000001 -0.000000 -0.000001 0.425194 -0.038513 24.242080 -0.319682 -4.562756 26.175903 -0.399340 -3.866004 22.149590 0.000000 0.000002 -0.000000 -1.130005 -5.473141 27.008373 -1.735303 -3.964750 21.352199 -2.101796 -7.476416 40.233506 -0.000002 -0.000001 0.000002 -26.285906 3.969151 -8.117672 26.654279 -2.057038 -1.637769 31.532617 6.364645 20.306678 -18.097898 0.000036 0.000013 -0.000000 0.000002 0.000000 -21.556236 -13.965242 -16.298078 83.952246 -0.961482 3.792188 19.146458 2.559928 14.383685 -63.275460 0.100733 -0.966625 -0.000000 -0.000000 -0.000000 
